<svg id="Layer_1" data-name="Layer 1" xmlns="http://www.w3.org/2000/svg" viewBox="0 0 1200 800"><defs><style>.cls-1{fill:#fff;}</style></defs><title>unknown</title><rect class="cls-1" width="1200" height="800"/><rect width="1200" height="800"/><path class="cls-1" d="M548,517.19l-1.6-20.8C541.6,453.19,556,406,596,358c36-42.4,56-73.6,56-109.6,0-40.8-25.6-68-76-68.8-28.8,0-60.8,9.6-80.8,24.8L476,154c26.4-19.2,72-32,114.4-32,92,0,133.6,56.8,133.6,117.6,0,54.4-30.4,93.6-68.8,139.2-35.2,41.6-48,76.8-45.6,117.6l.8,20.8Zm-17.6,112c0-29.6,20-50.4,48-50.4s47.2,20.8,47.2,50.4c0,28-18.4,49.6-48,49.6C549.6,678.79,530.4,657.19,530.4,629.19Z" transform="translate(0 0)"/></svg>